<svg xmlns="http://www.w3.org/2000/svg" viewBox="0 0 512 512">
  <defs>
    <linearGradient id="grad" x1="0%" y1="0%" x2="100%" y2="100%">
      <stop offset="0%" style="stop-color:#4F46E5;stop-opacity:1" />
      <stop offset="100%" style="stop-color:#7C3AED;stop-opacity:1" />
    </linearGradient>
  </defs>
  <rect width="512" height="512" rx="100" fill="url(#grad)"/>
  <g fill="#fff">
    <!-- Building icon -->
    <rect x="100" y="180" width="120" height="232" rx="10"/>
    <rect x="120" y="210" width="30" height="30" rx="5" fill="#4F46E5"/>
    <rect x="170" y="210" width="30" height="30" rx="5" fill="#4F46E5"/>
    <rect x="120" y="260" width="30" height="30" rx="5" fill="#4F46E5"/>
    <rect x="170" y="260" width="30" height="30" rx="5" fill="#4F46E5"/>
    <rect x="120" y="310" width="30" height="30" rx="5" fill="#4F46E5"/>
    <rect x="170" y="310" width="30" height="30" rx="5" fill="#4F46E5"/>
    <rect x="145" y="360" width="30" height="52" fill="#4F46E5"/>
    
    <!-- Second building -->
    <rect x="250" y="130" width="160" height="282" rx="10"/>
    <rect x="270" y="160" width="35" height="35" rx="5" fill="#4F46E5"/>
    <rect x="325" y="160" width="35" height="35" rx="5" fill="#4F46E5"/>
    <rect x="270" y="215" width="35" height="35" rx="5" fill="#4F46E5"/>
    <rect x="325" y="215" width="35" height="35" rx="5" fill="#4F46E5"/>
    <rect x="270" y="270" width="35" height="35" rx="5" fill="#4F46E5"/>
    <rect x="325" y="270" width="35" height="35" rx="5" fill="#4F46E5"/>
    <rect x="270" y="325" width="35" height="35" rx="5" fill="#4F46E5"/>
    <rect x="325" y="325" width="35" height="35" rx="5" fill="#4F46E5"/>
    <rect x="305" y="380" width="50" height="32" fill="#4F46E5"/>
    
    <!-- Key symbol -->
    <circle cx="420" cy="120" r="35" stroke="#FFD700" stroke-width="8" fill="none"/>
    <rect x="415" y="145" width="10" height="60" fill="#FFD700"/>
    <rect x="415" y="175" width="25" height="8" fill="#FFD700"/>
    <rect x="415" y="190" width="20" height="8" fill="#FFD700"/>
  </g>
  <!-- L letter -->
  <text x="70" y="130" font-family="Arial Black" font-size="80" fill="#fff" font-weight="bold">L</text>
</svg>
